# xmcd
#
# Track frame offsets:
#	150
#	14967
#	28275
#	41970
#	53220
#	65464
#	78517
#	93060
#	107252
#	119057
#	130307
#	144672
#	158407
#	175287
#
# Disc length: 2498 seconds
#
# Revision: 0
# Processed by: cddbd v1.5.2PL0 Copyright (c) Steve Scherf et al.
# Submitted via: dBpowerAMP V4.0
#
DISCID=c409c00e
DTITLE=Useita - Pohjolan yössä
DYEAR=1995
DGENRE=Undefined
TTITLE0=Lapin yössä
TTITLE1=Pohjolan kevät
TTITLE2=Lokki
TTITLE3=Rovaniemi ja Ounaskoski
TTITLE4=Suli jäiset kyyneleet
TTITLE5=Maailmalla
TTITLE6=Hyvä elämä
TTITLE7=Lapin kulta
TTITLE8=Yö tunturissa
TTITLE9=Kotitunturilla
TTITLE10=Vaskaaja
TTITLE11=Jääkukat
TTITLE12=Seitsemän päivää
TTITLE13=Pohjolan yö
EXTD=
EXTT0=
EXTT1=
EXTT2=
EXTT3=
EXTT4=
EXTT5=
EXTT6=
EXTT7=
EXTT8=
EXTT9=
EXTT10=
EXTT11=
EXTT12=
EXTT13=
PLAYORDER=
